<svg xmlns="http://www.w3.org/2000/svg" width="224.88" viewBox="0 0 224.88 75" height="75" version="1.0"><defs><clipPath id="a"><path d="M 5.621094 6.886719 L 58.839844 6.886719 L 58.839844 68.355469 L 5.621094 68.355469 Z M 5.621094 6.886719"/></clipPath></defs><g clip-path="url(#a)"><path fill="#5CE1E6" d="M 29.632812 61.148438 L 29.632812 39 L 10.570312 28.039062 L 10.570312 40.664062 L 19.300781 45.722656 L 19.300781 55.21875 Z M 34.582031 61.277344 L 45.105469 55.222656 L 45.105469 45.5 L 53.890625 40.414062 L 53.890625 27.945312 L 34.582031 39.085938 Z M 51.351562 23.695312 L 41.203125 17.820312 L 32.289062 22.988281 L 23.3125 17.8125 L 13.074219 23.769531 L 32.183594 34.757812 Z M 5.621094 53.070312 L 5.621094 22.378906 L 32.230469 6.902344 L 58.839844 22.316406 L 58.839844 53.023438 L 32.226562 68.34375 Z M 5.621094 53.070312"/></g><g fill="#5CE1E6"><g><g><path d="M 0.25 -20.21875 L 0.25 -25.265625 L 18 -25.265625 L 18 -20.21875 L 12 -20.21875 L 12 0 L 6.25 0 L 6.25 -20.21875 Z M 0.25 -20.21875" transform="translate(66.519 48.816)"/></g></g></g><g fill="#5CE1E6"><g><g><path d="M 17.734375 -7.109375 L 6.34375 -7.109375 C 6.34375 -6.003906 6.695312 -5.1875 7.40625 -4.65625 C 8.125 -4.125 8.898438 -3.859375 9.734375 -3.859375 C 10.617188 -3.859375 11.316406 -3.972656 11.828125 -4.203125 C 12.335938 -4.441406 12.914062 -4.910156 13.5625 -5.609375 L 17.484375 -3.640625 C 15.847656 -0.910156 13.132812 0.453125 9.34375 0.453125 C 6.96875 0.453125 4.929688 -0.351562 3.234375 -1.96875 C 1.546875 -3.59375 0.703125 -5.546875 0.703125 -7.828125 C 0.703125 -10.117188 1.546875 -12.082031 3.234375 -13.71875 C 4.929688 -15.351562 6.96875 -16.171875 9.34375 -16.171875 C 11.832031 -16.171875 13.859375 -15.453125 15.421875 -14.015625 C 16.984375 -12.578125 17.765625 -10.519531 17.765625 -7.84375 C 17.765625 -7.46875 17.753906 -7.222656 17.734375 -7.109375 Z M 6.5 -10.109375 L 12.46875 -10.109375 C 12.34375 -10.921875 12.019531 -11.546875 11.5 -11.984375 C 10.976562 -12.421875 10.3125 -12.640625 9.5 -12.640625 C 8.59375 -12.640625 7.875 -12.40625 7.34375 -11.9375 C 6.8125 -11.46875 6.53125 -10.859375 6.5 -10.109375 Z M 6.5 -10.109375" transform="translate(84.77 48.816)"/></g></g></g><g fill="#5CE1E6"><g><g><path d="M 8.671875 -16.171875 C 9.566406 -16.171875 10.453125 -16.066406 11.328125 -15.859375 C 12.203125 -15.660156 12.859375 -15.457031 13.296875 -15.25 L 13.9375 -14.9375 L 12.15625 -11.390625 C 10.9375 -12.046875 9.773438 -12.375 8.671875 -12.375 C 8.054688 -12.375 7.617188 -12.304688 7.359375 -12.171875 C 7.109375 -12.035156 6.984375 -11.785156 6.984375 -11.421875 C 6.984375 -11.335938 6.992188 -11.253906 7.015625 -11.171875 C 7.035156 -11.097656 7.078125 -11.023438 7.140625 -10.953125 C 7.203125 -10.878906 7.253906 -10.816406 7.296875 -10.765625 C 7.347656 -10.710938 7.4375 -10.65625 7.5625 -10.59375 C 7.6875 -10.53125 7.785156 -10.484375 7.859375 -10.453125 C 7.929688 -10.421875 8.046875 -10.375 8.203125 -10.3125 C 8.367188 -10.257812 8.492188 -10.21875 8.578125 -10.1875 C 8.660156 -10.15625 8.796875 -10.109375 8.984375 -10.046875 C 9.179688 -9.984375 9.332031 -9.941406 9.4375 -9.921875 C 10.0625 -9.734375 10.609375 -9.523438 11.078125 -9.296875 C 11.554688 -9.078125 12.054688 -8.773438 12.578125 -8.390625 C 13.097656 -8.003906 13.5 -7.515625 13.78125 -6.921875 C 14.0625 -6.328125 14.203125 -5.65625 14.203125 -4.90625 C 14.203125 -1.332031 11.722656 0.453125 6.765625 0.453125 C 5.640625 0.453125 4.570312 0.28125 3.5625 -0.0625 C 2.550781 -0.40625 1.820312 -0.753906 1.375 -1.109375 L 0.703125 -1.65625 L 2.90625 -5.359375 C 3.070312 -5.210938 3.285156 -5.039062 3.546875 -4.84375 C 3.816406 -4.65625 4.296875 -4.390625 4.984375 -4.046875 C 5.679688 -3.710938 6.285156 -3.546875 6.796875 -3.546875 C 7.921875 -3.546875 8.484375 -3.925781 8.484375 -4.6875 C 8.484375 -5.03125 8.335938 -5.296875 8.046875 -5.484375 C 7.765625 -5.679688 7.28125 -5.898438 6.59375 -6.140625 C 5.914062 -6.390625 5.378906 -6.617188 4.984375 -6.828125 C 4.003906 -7.335938 3.226562 -7.914062 2.65625 -8.5625 C 2.09375 -9.207031 1.8125 -10.054688 1.8125 -11.109375 C 1.8125 -12.703125 2.425781 -13.941406 3.65625 -14.828125 C 4.894531 -15.722656 6.566406 -16.171875 8.671875 -16.171875 Z M 8.671875 -16.171875" transform="translate(103.235 48.816)"/></g></g></g><g fill="#5CE1E6"><g><g><path d="M 2.75 -15.703125 L 2.75 -21.5625 L 8.171875 -21.5625 L 8.171875 -15.703125 L 11.484375 -15.703125 L 11.484375 -11.578125 L 8.171875 -11.578125 L 8.171875 -6.578125 C 8.171875 -5.128906 8.582031 -4.40625 9.40625 -4.40625 C 9.601562 -4.40625 9.8125 -4.445312 10.03125 -4.53125 C 10.257812 -4.613281 10.4375 -4.695312 10.5625 -4.78125 L 10.75 -4.90625 L 12.09375 -0.515625 C 10.925781 0.128906 9.597656 0.453125 8.109375 0.453125 C 7.085938 0.453125 6.207031 0.273438 5.46875 -0.078125 C 4.738281 -0.429688 4.1875 -0.910156 3.8125 -1.515625 C 3.4375 -2.117188 3.164062 -2.75 3 -3.40625 C 2.832031 -4.070312 2.75 -4.785156 2.75 -5.546875 L 2.75 -11.578125 L 0.484375 -11.578125 L 0.484375 -15.703125 Z M 2.75 -15.703125" transform="translate(118.3 48.816)"/></g></g></g><g fill="#5CE1E6"><g><g><path d="M 1.84375 -25.265625 L 9.15625 -25.265625 C 12.664062 -25.265625 15.664062 -24.0625 18.15625 -21.65625 C 20.644531 -19.257812 21.890625 -16.253906 21.890625 -12.640625 C 21.890625 -9.015625 20.648438 -6 18.171875 -3.59375 C 15.691406 -1.195312 12.6875 0 9.15625 0 L 1.84375 0 Z M 7.59375 -5.140625 L 8.484375 -5.140625 C 10.585938 -5.140625 12.304688 -5.847656 13.640625 -7.265625 C 14.984375 -8.691406 15.664062 -10.476562 15.6875 -12.625 C 15.6875 -14.757812 15.015625 -16.539062 13.671875 -17.96875 C 12.335938 -19.40625 10.609375 -20.125 8.484375 -20.125 L 7.59375 -20.125 Z M 7.59375 -5.140625" transform="translate(138.757 48.816)"/></g></g></g><g fill="#5CE1E6"><g><g><path d="M 2.90625 -1.9375 C 1.4375 -3.539062 0.703125 -5.503906 0.703125 -7.828125 C 0.703125 -10.160156 1.4375 -12.132812 2.90625 -13.75 C 4.375 -15.363281 6.242188 -16.171875 8.515625 -16.171875 C 10.597656 -16.171875 12.3125 -15.515625 13.65625 -14.203125 L 13.65625 -15.703125 L 19.078125 -15.703125 L 19.078125 0 L 13.71875 0 L 13.71875 -1.78125 L 13.65625 -1.78125 C 12.3125 -0.289062 10.597656 0.453125 8.515625 0.453125 C 6.242188 0.453125 4.375 -0.34375 2.90625 -1.9375 Z M 7.515625 -10.5 C 6.816406 -9.8125 6.46875 -8.925781 6.46875 -7.84375 C 6.46875 -6.757812 6.800781 -5.875 7.46875 -5.1875 C 8.144531 -4.507812 9.035156 -4.171875 10.140625 -4.171875 C 11.203125 -4.171875 12.070312 -4.515625 12.75 -5.203125 C 13.4375 -5.898438 13.78125 -6.78125 13.78125 -7.84375 C 13.78125 -8.925781 13.425781 -9.8125 12.71875 -10.5 C 12.019531 -11.195312 11.160156 -11.546875 10.140625 -11.546875 C 9.097656 -11.546875 8.222656 -11.195312 7.515625 -10.5 Z M 7.515625 -10.5" transform="translate(161.356 48.816)"/></g></g></g><g fill="#5CE1E6"><g><g><path d="M 2.75 -15.703125 L 2.75 -21.5625 L 8.171875 -21.5625 L 8.171875 -15.703125 L 11.484375 -15.703125 L 11.484375 -11.578125 L 8.171875 -11.578125 L 8.171875 -6.578125 C 8.171875 -5.128906 8.582031 -4.40625 9.40625 -4.40625 C 9.601562 -4.40625 9.8125 -4.445312 10.03125 -4.53125 C 10.257812 -4.613281 10.4375 -4.695312 10.5625 -4.78125 L 10.75 -4.90625 L 12.09375 -0.515625 C 10.925781 0.128906 9.597656 0.453125 8.109375 0.453125 C 7.085938 0.453125 6.207031 0.273438 5.46875 -0.078125 C 4.738281 -0.429688 4.1875 -0.910156 3.8125 -1.515625 C 3.4375 -2.117188 3.164062 -2.75 3 -3.40625 C 2.832031 -4.070312 2.75 -4.785156 2.75 -5.546875 L 2.75 -11.578125 L 0.484375 -11.578125 L 0.484375 -15.703125 Z M 2.75 -15.703125" transform="translate(182.271 48.816)"/></g></g></g><g fill="#5CE1E6"><g><g><path d="M 2.90625 -1.9375 C 1.4375 -3.539062 0.703125 -5.503906 0.703125 -7.828125 C 0.703125 -10.160156 1.4375 -12.132812 2.90625 -13.75 C 4.375 -15.363281 6.242188 -16.171875 8.515625 -16.171875 C 10.597656 -16.171875 12.3125 -15.515625 13.65625 -14.203125 L 13.65625 -15.703125 L 19.078125 -15.703125 L 19.078125 0 L 13.71875 0 L 13.71875 -1.78125 L 13.65625 -1.78125 C 12.3125 -0.289062 10.597656 0.453125 8.515625 0.453125 C 6.242188 0.453125 4.375 -0.34375 2.90625 -1.9375 Z M 7.515625 -10.5 C 6.816406 -9.8125 6.46875 -8.925781 6.46875 -7.84375 C 6.46875 -6.757812 6.800781 -5.875 7.46875 -5.1875 C 8.144531 -4.507812 9.035156 -4.171875 10.140625 -4.171875 C 11.203125 -4.171875 12.070312 -4.515625 12.75 -5.203125 C 13.4375 -5.898438 13.78125 -6.78125 13.78125 -7.84375 C 13.78125 -8.925781 13.425781 -9.8125 12.71875 -10.5 C 12.019531 -11.195312 11.160156 -11.546875 10.140625 -11.546875 C 9.097656 -11.546875 8.222656 -11.195312 7.515625 -10.5 Z M 7.515625 -10.5" transform="translate(194.367 48.816)"/></g></g></g></svg>